<svg width="30" height="32" viewBox="0 0 30 32" [attr.fill]="fillColor" xmlns="http://www.w3.org/2000/svg">
<path d="M11 9.20168C11 8.25321 11.4485 7.3606 12.2096 6.79454L20 1L27.7904 6.79454C28.5515 7.3606 29 8.25321 29 9.20168V18.5C29 19.8807 27.8807 21 26.5 21H23.7C23.1477 21 22.7 20.5523 22.7 20V14.6818C22.7 14.4057 22.4761 14.1818 22.2 14.1818H17.8C17.5239 14.1818 17.3 14.4057 17.3 14.6818V20C17.3 20.5523 16.8523 21 16.3 21H13.5C12.1193 21 11 19.8807 11 18.5V9.20168Z" stroke="#451864" stroke-width="1.5" stroke-linecap="round" stroke-linejoin="round"/>
<path d="M1 15.895C1 14.9354 1.45902 14.0338 2.23491 13.4692L12.5 6L22.7651 13.4692C23.541 14.0338 24 14.9354 24 15.895V28.5C24 29.8807 22.8807 31 21.5 31H16.95C16.3977 31 15.95 30.5523 15.95 30V22.9773C15.95 22.7011 15.7261 22.4773 15.45 22.4773H9.55C9.27386 22.4773 9.05 22.7011 9.05 22.9773V30C9.05 30.5523 8.60228 31 8.05 31H3.5C2.11929 31 1 29.8807 1 28.5V15.895Z" fill="white" stroke="#451864" stroke-width="2" stroke-linecap="round" stroke-linejoin="round"/>
</svg>
