<svg width="23" height="23" viewBox="0 0 23 23" fill="none" xmlns="http://www.w3.org/2000/svg">
<path d="M15.2847 3.51641L17.1617 3.72497C18.0914 3.82826 18.8069 4.56892 18.671 5.49441C18.4012 7.33177 17.4132 10.5436 13.979 13.9779C10.5447 17.4122 7.33246 18.4005 5.49478 18.6707C4.56914 18.8067 3.82824 18.0912 3.72492 17.1613L3.51641 15.2847C3.42833 14.4921 3.81961 13.7229 4.5121 13.3273L5.75842 12.6153C6.54146 12.168 7.52702 12.3 8.1647 12.9377L8.18344 12.9564C8.65629 13.4293 9.33971 13.6288 9.93056 13.3157C10.4473 13.0418 11.1241 12.5902 11.8571 11.8571C12.5902 11.1241 13.0418 10.4473 13.3157 9.93056C13.6288 9.33971 13.4293 8.65629 12.9564 8.18344L12.9377 8.16471C12.3 7.52703 12.1679 6.54147 12.6153 5.75842L13.3273 4.51211C13.7229 3.81961 14.4921 3.42834 15.2847 3.51641Z" stroke="black" stroke-width="1.5" stroke-linecap="round" stroke-linejoin="round"/>
</svg>
