<svg width="53" height="75" viewBox="0 0 53 75" fill="none" xmlns="http://www.w3.org/2000/svg">
<g filter="url(#filter0_d)">
<path d="M5 25C5 12.8497 14.8497 3 27 3V3C39.1503 3 49 12.8497 49 25V25C49 37.1503 39.1503 47 27 47V47C14.8497 47 5 37.1503 5 25V25Z" fill="#A0CAE8"/>
</g>
<path d="M18.5513 28.6617L32.5525 14.6605C32.5891 14.6488 32.632 14.6359 32.6805 14.6228C32.8837 14.5677 33.1757 14.5107 33.5188 14.506C34.1849 14.4968 35.0653 14.6807 35.9201 15.5355C36.775 16.3904 36.9589 17.2708 36.9497 17.9369C36.945 18.2799 36.8879 18.572 36.8329 18.7752C36.8198 18.8237 36.8069 18.8665 36.7951 18.9032L22.794 32.9044L17.9728 33.4829L18.5513 28.6617Z" stroke="#F7F7FC" stroke-width="2" stroke-linecap="round"/>
<path d="M29.2671 16.5316L34.6546 21.9191" stroke="#F7F7FC" stroke-width="2"/>
<path d="M10.483 55.333L8.261 63H7.139L5.357 56.829L3.509 63L2.398 63.011L0.253 55.333H1.32L2.992 61.834L4.84 55.333H5.962L7.722 61.812L9.405 55.333H10.483ZM13.0954 55.993C12.9048 55.993 12.7434 55.927 12.6114 55.795C12.4794 55.663 12.4134 55.5017 12.4134 55.311C12.4134 55.1203 12.4794 54.959 12.6114 54.827C12.7434 54.695 12.9048 54.629 13.0954 54.629C13.2788 54.629 13.4328 54.695 13.5574 54.827C13.6894 54.959 13.7554 55.1203 13.7554 55.311C13.7554 55.5017 13.6894 55.663 13.5574 55.795C13.4328 55.927 13.2788 55.993 13.0954 55.993ZM13.5794 56.972V63H12.5784V56.972H13.5794ZM16.8245 55.993C16.6338 55.993 16.4725 55.927 16.3405 55.795C16.2158 55.663 16.1535 55.5017 16.1535 55.311C16.1535 55.1203 16.2158 54.959 16.3405 54.827C16.4725 54.695 16.6338 54.629 16.8245 54.629C17.0151 54.629 17.1728 54.695 17.2975 54.827C17.4295 54.959 17.4955 55.1203 17.4955 55.311C17.4955 55.5017 17.4295 55.663 17.2975 55.795C17.1728 55.927 17.0151 55.993 16.8245 55.993ZM17.3195 64.309C17.3195 64.8443 17.1838 65.2367 16.9125 65.486C16.6411 65.7353 16.2451 65.86 15.7245 65.86H15.1415V65.013H15.5595C15.8381 65.013 16.0325 64.958 16.1425 64.848C16.2598 64.738 16.3185 64.551 16.3185 64.287V56.972H17.3195V64.309ZM20.762 62.175H23.721V63H19.618V62.175L22.544 57.786H19.64V56.972H23.699V57.786L20.762 62.175ZM26.5369 55.993C26.3462 55.993 26.1849 55.927 26.0529 55.795C25.9209 55.663 25.8549 55.5017 25.8549 55.311C25.8549 55.1203 25.9209 54.959 26.0529 54.827C26.1849 54.695 26.3462 54.629 26.5369 54.629C26.7202 54.629 26.8742 54.695 26.9989 54.827C27.1309 54.959 27.1969 55.1203 27.1969 55.311C27.1969 55.5017 27.1309 55.663 26.9989 55.795C26.8742 55.927 26.7202 55.993 26.5369 55.993ZM27.0209 56.972V63H26.0199V56.972H27.0209ZM32.2129 56.873C32.7335 56.873 33.1882 56.9867 33.5769 57.214C33.9729 57.4413 34.2662 57.7273 34.4569 58.072V56.972H35.4689V63.132C35.4689 63.682 35.3515 64.1697 35.1169 64.595C34.8822 65.0277 34.5449 65.365 34.1049 65.607C33.6722 65.849 33.1662 65.97 32.5869 65.97C31.7949 65.97 31.1349 65.783 30.6069 65.409C30.0789 65.035 29.7672 64.5253 29.6719 63.88H30.6619C30.7719 64.2467 30.9992 64.54 31.3439 64.76C31.6885 64.9873 32.1029 65.101 32.5869 65.101C33.1369 65.101 33.5842 64.9287 33.9289 64.584C34.2809 64.2393 34.4569 63.7553 34.4569 63.132V61.867C34.2589 62.219 33.9655 62.5123 33.5769 62.747C33.1882 62.9817 32.7335 63.099 32.2129 63.099C31.6775 63.099 31.1899 62.967 30.7499 62.703C30.3172 62.439 29.9762 62.0687 29.7269 61.592C29.4775 61.1153 29.3529 60.5727 29.3529 59.964C29.3529 59.348 29.4775 58.809 29.7269 58.347C29.9762 57.8777 30.3172 57.5147 30.7499 57.258C31.1899 57.0013 31.6775 56.873 32.2129 56.873ZM34.4569 59.975C34.4569 59.5203 34.3652 59.1243 34.1819 58.787C33.9985 58.4497 33.7492 58.193 33.4339 58.017C33.1259 57.8337 32.7849 57.742 32.4109 57.742C32.0369 57.742 31.6959 57.83 31.3879 58.006C31.0799 58.182 30.8342 58.4387 30.6509 58.776C30.4675 59.1133 30.3759 59.5093 30.3759 59.964C30.3759 60.426 30.4675 60.8293 30.6509 61.174C30.8342 61.5113 31.0799 61.7717 31.3879 61.955C31.6959 62.131 32.0369 62.219 32.4109 62.219C32.7849 62.219 33.1259 62.131 33.4339 61.955C33.7492 61.7717 33.9985 61.5113 34.1819 61.174C34.3652 60.8293 34.4569 60.4297 34.4569 59.975ZM43.6605 59.755C43.6605 59.9457 43.6495 60.1473 43.6275 60.36H38.8095C38.8461 60.954 39.0478 61.4197 39.4145 61.757C39.7885 62.087 40.2395 62.252 40.7675 62.252C41.2001 62.252 41.5595 62.153 41.8455 61.955C42.1388 61.7497 42.3441 61.4783 42.4615 61.141H43.5395C43.3781 61.7203 43.0555 62.1933 42.5715 62.56C42.0875 62.9193 41.4861 63.099 40.7675 63.099C40.1955 63.099 39.6821 62.9707 39.2275 62.714C38.7801 62.4573 38.4281 62.0943 38.1715 61.625C37.9148 61.1483 37.7865 60.5983 37.7865 59.975C37.7865 59.3517 37.9111 58.8053 38.1605 58.336C38.4098 57.8667 38.7581 57.5073 39.2055 57.258C39.6601 57.0013 40.1808 56.873 40.7675 56.873C41.3395 56.873 41.8455 56.9977 42.2855 57.247C42.7255 57.4963 43.0628 57.841 43.2975 58.281C43.5395 58.7137 43.6605 59.205 43.6605 59.755ZM42.6265 59.546C42.6265 59.1647 42.5421 58.8383 42.3735 58.567C42.2048 58.2883 41.9738 58.0793 41.6805 57.94C41.3945 57.7933 41.0755 57.72 40.7235 57.72C40.2175 57.72 39.7848 57.8813 39.4255 58.204C39.0735 58.5267 38.8718 58.974 38.8205 59.546H42.6265ZM48.9188 56.862C49.6521 56.862 50.2461 57.0857 50.7008 57.533C51.1554 57.973 51.3828 58.611 51.3828 59.447V63H50.3928V59.59C50.3928 58.9887 50.2424 58.5303 49.9418 58.215C49.6411 57.8923 49.2304 57.731 48.7098 57.731C48.1818 57.731 47.7601 57.896 47.4448 58.226C47.1368 58.556 46.9828 59.0363 46.9828 59.667V63H45.9818V56.972H46.9828V57.83C47.1808 57.522 47.4484 57.2837 47.7858 57.115C48.1304 56.9463 48.5081 56.862 48.9188 56.862Z" fill="#14142B"/>
<defs>
<filter id="filter0_d" x="1" y="0" width="52" height="52" filterUnits="userSpaceOnUse" color-interpolation-filters="sRGB">
<feFlood flood-opacity="0" result="BackgroundImageFix"/>
<feColorMatrix in="SourceAlpha" type="matrix" values="0 0 0 0 0 0 0 0 0 0 0 0 0 0 0 0 0 0 127 0"/>
<feOffset dy="1"/>
<feGaussianBlur stdDeviation="2"/>
<feColorMatrix type="matrix" values="0 0 0 0 0 0 0 0 0 0 0 0 0 0 0 0 0 0 0.25 0"/>
<feBlend mode="normal" in2="BackgroundImageFix" result="effect1_dropShadow"/>
<feBlend mode="normal" in="SourceGraphic" in2="effect1_dropShadow" result="shape"/>
</filter>
</defs>
</svg>
