<svg width="23" height="29" viewBox="0 0 23 29" fill="none" xmlns="http://www.w3.org/2000/svg">
<g opacity="0.8">
<path d="M1.51343 3.93621C1.51343 2.83164 2.40886 1.93621 3.51343 1.93621H13.4458H19.8511C20.9557 1.93621 21.8511 2.83164 21.8511 3.93621V12.0308V25.0563C21.8511 26.1609 20.9557 27.0563 19.8511 27.0563H3.51343C2.40886 27.0563 1.51343 26.1609 1.51343 25.0563V3.93621Z" stroke="white" stroke-width="2"/>
<path d="M12.3324 13.6471C12.3324 13.4538 12.4891 13.2971 12.6824 13.2971H15.9932H18.1283C18.3216 13.2971 18.4783 13.4538 18.4783 13.6471V15.6729V19.0435C18.4783 19.2368 18.3216 19.3935 18.1283 19.3935H12.6824C12.4891 19.3935 12.3324 19.2368 12.3324 19.0435V13.6471Z" stroke="white" stroke-width="1.3"/>
<path d="M12.9233 18.1945L15.1753 16.5262C15.8265 16.0438 16.7044 16.0021 17.3984 16.4205L17.8873 16.7152" stroke="white"/>
<path d="M5.47729 10.1816H17.8871" stroke="white" stroke-width="2" stroke-linecap="round"/>
<path d="M5.47729 6.48349H17.8871" stroke="white" stroke-width="2" stroke-linecap="round"/>
<path d="M5.47729 23.1254H17.8871" stroke="white" stroke-width="2" stroke-linecap="round"/>
<path d="M5.47729 14.4963H9.19934" stroke="white" stroke-width="2" stroke-linecap="round"/>
<path d="M5.47729 18.1945H9.19934" stroke="white" stroke-width="2" stroke-linecap="round"/>
<ellipse rx="0.248199" ry="0.246546" transform="matrix(-1 0 0 1 14.1646 14.9893)" fill="#451864" stroke="white" stroke-width="0.5"/>
</g>
</svg>
