<svg width="23" height="28" viewBox="0 0 23 28" fill="none" xmlns="http://www.w3.org/2000/svg">
<g opacity="0.8">
<path d="M19.2727 26.2222H3C1.89543 26.2222 1 25.3268 1 24.2222V3C1 1.89543 1.89543 1 3 1H12.8947H19.2727C20.3773 1 21.2727 1.89543 21.2727 3V11.1364V24.2222C21.2727 25.3268 20.3773 26.2222 19.2727 26.2222Z" stroke="black" stroke-width="2"/>
<path d="M17.5606 18.5292H12.1364C11.9431 18.5292 11.7864 18.3725 11.7864 18.1792V12.755C11.7864 12.5617 11.9431 12.405 12.1364 12.405H15.4346H17.5606C17.7539 12.405 17.9106 12.5617 17.9106 12.755V14.7922V18.1792C17.9106 18.3725 17.7539 18.5292 17.5606 18.5292Z" stroke="black" stroke-width="1.3"/>
<path d="M12.3738 17.3233L14.6114 15.6545C15.2647 15.1673 16.1481 15.1252 16.8447 15.548L17.3233 15.8384" stroke="black"/>
<path d="M4.94946 9.28024H17.3232" stroke="black" stroke-width="2" stroke-linecap="round"/>
<path d="M4.94946 5.56818H17.3232" stroke="black" stroke-width="2" stroke-linecap="round"/>
<path d="M4.94946 22.2727H17.3232" stroke="black" stroke-width="2" stroke-linecap="round"/>
<path d="M4.94946 13.6111H8.66158" stroke="black" stroke-width="2" stroke-linecap="round"/>
<path d="M4.94946 17.3232H8.66158" stroke="black" stroke-width="2" stroke-linecap="round"/>
<circle r="0.247475" transform="matrix(-1 0 0 1 13.6114 14.106)" fill="#451864" stroke="black" stroke-width="0.5"/>
</g>
</svg>
