<svg width="401" height="158" viewBox="0 0 401 158" fill="none" xmlns="http://www.w3.org/2000/svg">
<path d="M350.5 37.5C368 39.3785 377.393 15.2156 369.927 4.06828C363 32 347 29.5 349 33.5C345.858 33.6307 355.5 38.0367 350.5 37.5Z" fill="#451763" stroke="#451763"/>
<path d="M390.5 38C360.5 48 350 30 347 17.5C344 31 351.1 54.5 383.5 50.5C392.833 49.1667 407.3 44.8 390.5 38Z" fill="#A0CAE8" stroke="#A0CAE8"/>
<path d="M347.057 15.6676L347.156 16.0901L347.282 16.589L347.49 17.3926C347.49 17.3926 346.42 18.041 346.465 17.625C346.509 17.209 347.057 15.6676 347.057 15.6676Z" fill="#A0CAE8"/>
<path d="M364 56C394.4 44.8 387.5 10 375.5 4C384 31 366 45 352.5 50.5C349.833 52.1667 349.6 55.2 364 56Z" fill="#451763" stroke="#451763"/>
<path d="M358.22 62.6094C330.21 61.3207 330.938 25.3142 343.37 16.2201C338.721 62.7565 375.674 56.4775 372.693 59.0001C368.966 62.1541 362.055 62.7471 358.22 62.6094Z" fill="#A0CAE8" stroke="#A0CAE8"/>
<path d="M385 8C416.5 23.5 396.5 88 346 59.5C389.2 71.9 401.5 28 385 8Z" fill="#451763" stroke="#451763"/>
<path d="M344.816 58.6172C344.852 58.6328 345.277 58.7656 345.277 58.7656L345.695 58.8945L346.058 58.9998L346.409 59.0963L345.781 59.957L345.416 59.6814L345.156 59.4648L344.949 59.272L344.773 59.0742L344.555 58.8008L344.234 58.3555C344.234 58.3555 344.781 58.6016 344.816 58.6172Z" fill="#451763"/>
<path d="M384.223 7.11327L384.598 7.26556L384.785 7.34759L385 7.44134L385.156 7.51556L385.336 7.6015L384.633 8.34375L384.445 8.10151L384.223 7.83936L383.889 7.44134L383.398 6.82445L384.223 7.11327Z" fill="#451763"/>
<path d="M373.894 58.4375L373.492 58.6133L373 58.8164L372.054 59.1852L371.517 57.722L372.146 57.8289L372.698 57.9249L373.298 58.033L374.343 58.2371L373.894 58.4375Z" fill="#A0CAE8"/>
<path d="M3.68712 120V90.1406H12.5055C15.1441 90.1406 17.482 90.7285 19.5191 91.9043C21.5699 93.0801 23.1559 94.748 24.277 96.9082C25.3981 99.0684 25.9586 101.543 25.9586 104.332V105.829C25.9586 108.659 25.3912 111.147 24.2565 113.294C23.1354 115.44 21.5289 117.095 19.4371 118.257C17.359 119.419 14.9733 120 12.2799 120H3.68712ZM8.8756 94.3242V115.857H12.2594C14.9801 115.857 17.065 115.01 18.5143 113.314C19.9772 111.605 20.7223 109.158 20.7496 105.973V104.312C20.7496 101.071 20.0455 98.5967 18.6373 96.8877C17.2291 95.1787 15.1852 94.3242 12.5055 94.3242H8.8756ZM40.8366 120.41C37.6784 120.41 35.1149 119.419 33.1462 117.437C31.1911 115.44 30.2136 112.788 30.2136 109.479V108.864C30.2136 106.649 30.6374 104.674 31.485 102.938C32.3464 101.188 33.5495 99.8271 35.0944 98.8564C36.6393 97.8857 38.362 97.4004 40.2624 97.4004C43.2839 97.4004 45.6149 98.3643 47.2556 100.292C48.9099 102.22 49.737 104.947 49.737 108.475V110.484H35.238C35.3884 112.316 35.9968 113.766 37.0632 114.832C38.1433 115.898 39.4968 116.432 41.1237 116.432C43.4069 116.432 45.2663 115.509 46.7018 113.663L49.3884 116.227C48.4997 117.553 47.3102 118.585 45.82 119.323C44.3434 120.048 42.6823 120.41 40.8366 120.41ZM40.2419 101.399C38.8747 101.399 37.7673 101.878 36.9196 102.835C36.0856 103.792 35.5524 105.125 35.32 106.834H44.8151V106.465C44.7058 104.797 44.2614 103.539 43.4821 102.691C42.7028 101.83 41.6227 101.399 40.2419 101.399ZM89.0907 120H83.9022L70.5926 98.8154V120H65.4041V90.1406H70.5926L83.9432 111.407V90.1406H89.0907V120ZM100.462 120H95.4784V97.8105H100.462V120ZM95.1708 92.0479C95.1708 91.2822 95.4101 90.6465 95.8886 90.1406C96.3808 89.6348 97.0781 89.3818 97.9804 89.3818C98.8827 89.3818 99.58 89.6348 100.072 90.1406C100.564 90.6465 100.81 91.2822 100.81 92.0479C100.81 92.7998 100.564 93.4287 100.072 93.9346C99.58 94.4268 98.8827 94.6729 97.9804 94.6729C97.0781 94.6729 96.3808 94.4268 95.8886 93.9346C95.4101 93.4287 95.1708 92.7998 95.1708 92.0479ZM116.099 120.41C112.94 120.41 110.377 119.419 108.408 117.437C106.453 115.44 105.476 112.788 105.476 109.479V108.864C105.476 106.649 105.899 104.674 106.747 102.938C107.608 101.188 108.812 99.8271 110.356 98.8564C111.901 97.8857 113.624 97.4004 115.524 97.4004C118.546 97.4004 120.877 98.3643 122.518 100.292C124.172 102.22 124.999 104.947 124.999 108.475V110.484H110.5C110.65 112.316 111.259 113.766 112.325 114.832C113.405 115.898 114.759 116.432 116.386 116.432C118.669 116.432 120.528 115.509 121.964 113.663L124.65 116.227C123.762 117.553 122.572 118.585 121.082 119.323C119.605 120.048 117.944 120.41 116.099 120.41ZM115.504 101.399C114.137 101.399 113.029 101.878 112.182 102.835C111.348 103.792 110.814 105.125 110.582 106.834H120.077V106.465C119.968 104.797 119.523 103.539 118.744 102.691C117.965 101.83 116.885 101.399 115.504 101.399ZM142.748 117.826C141.285 119.549 139.207 120.41 136.514 120.41C134.108 120.41 132.282 119.706 131.038 118.298C129.808 116.89 129.192 114.853 129.192 112.187V97.8105H134.176V112.125C134.176 114.941 135.345 116.35 137.683 116.35C140.103 116.35 141.736 115.481 142.584 113.745V97.8105H147.567V120H142.871L142.748 117.826ZM172.556 113.13L176.083 97.8105H180.944L174.894 120H170.792L166.034 104.763L161.359 120H157.257L151.187 97.8105H156.047L159.636 112.966L164.189 97.8105H167.942L172.556 113.13ZM194.468 120.41C191.31 120.41 188.746 119.419 186.778 117.437C184.823 115.44 183.845 112.788 183.845 109.479V108.864C183.845 106.649 184.269 104.674 185.116 102.938C185.978 101.188 187.181 99.8271 188.726 98.8564C190.271 97.8857 191.993 97.4004 193.894 97.4004C196.915 97.4004 199.246 98.3643 200.887 100.292C202.541 102.22 203.368 104.947 203.368 108.475V110.484H188.869C189.02 112.316 189.628 113.766 190.695 114.832C191.775 115.898 193.128 116.432 194.755 116.432C197.038 116.432 198.898 115.509 200.333 113.663L203.02 116.227C202.131 117.553 200.942 118.585 199.451 119.323C197.975 120.048 196.314 120.41 194.468 120.41ZM193.873 101.399C192.506 101.399 191.399 101.878 190.551 102.835C189.717 103.792 189.184 105.125 188.951 106.834H198.447V106.465C198.337 104.797 197.893 103.539 197.114 102.691C196.334 101.83 195.254 101.399 193.873 101.399ZM244.975 112.617L249.569 90.1406H254.717L247.826 120H242.863L237.183 98.2002L231.379 120H226.395L219.505 90.1406H224.652L229.287 112.576L234.988 90.1406H239.336L244.975 112.617ZM268.641 120.41C265.482 120.41 262.919 119.419 260.95 117.437C258.995 115.44 258.018 112.788 258.018 109.479V108.864C258.018 106.649 258.441 104.674 259.289 102.938C260.15 101.188 261.354 99.8271 262.898 98.8564C264.443 97.8857 266.166 97.4004 268.066 97.4004C271.088 97.4004 273.419 98.3643 275.06 100.292C276.714 102.22 277.541 104.947 277.541 108.475V110.484H263.042C263.192 112.316 263.801 113.766 264.867 114.832C265.947 115.898 267.301 116.432 268.928 116.432C271.211 116.432 273.07 115.509 274.506 113.663L277.192 116.227C276.304 117.553 275.114 118.585 273.624 119.323C272.148 120.048 270.486 120.41 268.641 120.41ZM268.046 101.399C266.679 101.399 265.571 101.878 264.724 102.835C263.89 103.792 263.356 105.125 263.124 106.834H272.619V106.465C272.51 104.797 272.065 103.539 271.286 102.691C270.507 101.83 269.427 101.399 268.046 101.399ZM294.725 102.363C294.069 102.254 293.392 102.199 292.695 102.199C290.411 102.199 288.873 103.074 288.08 104.824V120H283.097V97.8105H287.855L287.978 100.292C289.181 98.3643 290.849 97.4004 292.982 97.4004C293.693 97.4004 294.281 97.4961 294.745 97.6875L294.725 102.363ZM309.745 120.41C306.587 120.41 304.023 119.419 302.054 117.437C300.099 115.44 299.122 112.788 299.122 109.479V108.864C299.122 106.649 299.546 104.674 300.393 102.938C301.255 101.188 302.458 99.8271 304.003 98.8564C305.548 97.8857 307.27 97.4004 309.171 97.4004C312.192 97.4004 314.523 98.3643 316.164 100.292C317.818 102.22 318.645 104.947 318.645 108.475V110.484H304.146C304.297 112.316 304.905 113.766 305.971 114.832C307.052 115.898 308.405 116.432 310.032 116.432C312.315 116.432 314.175 115.509 315.61 113.663L318.297 116.227C317.408 117.553 316.219 118.585 314.728 119.323C313.252 120.048 311.591 120.41 309.745 120.41ZM309.15 101.399C307.783 101.399 306.676 101.878 305.828 102.835C304.994 103.792 304.461 105.125 304.228 106.834H313.723V106.465C313.614 104.797 313.17 103.539 312.39 102.691C311.611 101.83 310.531 101.399 309.15 101.399ZM330.353 120H325.369V88.5H330.353V120ZM337.385 108.741C337.385 105.323 338.177 102.582 339.763 100.518C341.349 98.4395 343.475 97.4004 346.141 97.4004C348.493 97.4004 350.393 98.2207 351.843 99.8613V88.5H356.826V120H352.314L352.068 117.703C350.578 119.508 348.589 120.41 346.1 120.41C343.503 120.41 341.397 119.364 339.784 117.272C338.184 115.181 337.385 112.337 337.385 108.741ZM342.368 109.172C342.368 111.428 342.799 113.191 343.66 114.463C344.535 115.721 345.772 116.35 347.372 116.35C349.409 116.35 350.899 115.44 351.843 113.622V104.147C350.926 102.37 349.45 101.481 347.413 101.481C345.8 101.481 344.555 102.124 343.68 103.409C342.805 104.681 342.368 106.602 342.368 109.172Z" fill="#451763"/>
<path d="M192.577 149.039L194.737 141.208H197.981L194.06 152.831H191.095L187.174 141.208H190.418L192.577 149.039ZM206.359 152.831C206.216 152.552 206.112 152.205 206.048 151.789C205.296 152.627 204.318 153.046 203.115 153.046C201.976 153.046 201.031 152.717 200.279 152.058C199.534 151.399 199.162 150.568 199.162 149.566C199.162 148.334 199.617 147.389 200.526 146.73C201.443 146.071 202.764 145.738 204.49 145.731H205.919V145.065C205.919 144.528 205.779 144.098 205.5 143.776C205.228 143.453 204.794 143.292 204.2 143.292C203.677 143.292 203.265 143.418 202.965 143.668C202.671 143.919 202.524 144.263 202.524 144.699H199.42C199.42 144.026 199.627 143.403 200.043 142.83C200.458 142.257 201.045 141.81 201.805 141.487C202.564 141.158 203.416 140.993 204.361 140.993C205.793 140.993 206.929 141.355 207.766 142.078C208.611 142.794 209.034 143.804 209.034 145.108V150.146C209.041 151.249 209.195 152.083 209.496 152.649V152.831H206.359ZM203.792 150.672C204.25 150.672 204.673 150.572 205.059 150.371C205.446 150.164 205.733 149.888 205.919 149.544V147.546H204.759C203.205 147.546 202.377 148.083 202.277 149.157L202.266 149.34C202.266 149.727 202.403 150.045 202.675 150.296C202.947 150.547 203.319 150.672 203.792 150.672ZM218.154 149.619C218.154 149.24 217.964 148.943 217.584 148.728C217.212 148.506 216.61 148.309 215.78 148.137C213.015 147.557 211.633 146.382 211.633 144.613C211.633 143.582 212.059 142.723 212.912 142.035C213.771 141.341 214.892 140.993 216.274 140.993C217.749 140.993 218.927 141.341 219.808 142.035C220.696 142.73 221.14 143.632 221.14 144.742H218.036C218.036 144.298 217.892 143.933 217.606 143.647C217.319 143.353 216.872 143.206 216.263 143.206C215.74 143.206 215.336 143.324 215.049 143.561C214.763 143.797 214.62 144.098 214.62 144.463C214.62 144.807 214.781 145.086 215.103 145.301C215.432 145.509 215.984 145.691 216.757 145.849C217.531 145.999 218.182 146.171 218.712 146.364C220.352 146.966 221.172 148.008 221.172 149.49C221.172 150.55 220.718 151.41 219.808 152.069C218.899 152.72 217.724 153.046 216.285 153.046C215.311 153.046 214.444 152.874 213.685 152.53C212.933 152.18 212.342 151.703 211.913 151.102C211.483 150.493 211.268 149.838 211.268 149.136H214.211C214.24 149.687 214.444 150.11 214.824 150.404C215.203 150.697 215.712 150.844 216.349 150.844C216.943 150.844 217.391 150.733 217.692 150.511C218 150.282 218.154 149.985 218.154 149.619ZM227.338 138.351V141.208H229.325V143.486H227.338V149.286C227.338 149.716 227.42 150.024 227.585 150.21C227.75 150.396 228.065 150.489 228.53 150.489C228.874 150.489 229.178 150.464 229.443 150.414V152.767C228.835 152.953 228.208 153.046 227.563 153.046C225.386 153.046 224.276 151.947 224.233 149.748V143.486H222.536V141.208H224.233V138.351H227.338ZM231.043 146.934C231.043 145.151 231.466 143.715 232.311 142.626C233.163 141.538 234.309 140.993 235.749 140.993C237.023 140.993 238.015 141.43 238.724 142.304L238.853 141.208H241.667V152.445C241.667 153.461 241.435 154.346 240.969 155.098C240.511 155.85 239.863 156.423 239.025 156.817C238.187 157.21 237.206 157.407 236.082 157.407C235.229 157.407 234.399 157.236 233.589 156.892C232.78 156.555 232.168 156.118 231.752 155.581L233.127 153.691C233.901 154.557 234.839 154.99 235.942 154.99C236.765 154.99 237.406 154.768 237.865 154.324C238.323 153.888 238.552 153.265 238.552 152.455V151.832C237.836 152.641 236.894 153.046 235.727 153.046C234.331 153.046 233.199 152.502 232.333 151.413C231.473 150.318 231.043 148.867 231.043 147.063V146.934ZM234.148 147.159C234.148 148.212 234.359 149.039 234.782 149.641C235.204 150.235 235.784 150.532 236.522 150.532C237.467 150.532 238.144 150.178 238.552 149.469V144.581C238.137 143.872 237.467 143.518 236.543 143.518C235.799 143.518 235.211 143.822 234.782 144.431C234.359 145.04 234.148 145.949 234.148 147.159ZM244.02 146.912C244.02 145.759 244.242 144.732 244.686 143.829C245.13 142.927 245.767 142.229 246.598 141.735C247.436 141.24 248.406 140.993 249.509 140.993C251.077 140.993 252.356 141.473 253.344 142.433C254.339 143.392 254.894 144.696 255.009 146.343L255.03 147.138C255.03 148.921 254.533 150.353 253.537 151.435C252.542 152.509 251.206 153.046 249.53 153.046C247.855 153.046 246.515 152.509 245.513 151.435C244.517 150.361 244.02 148.9 244.02 147.052V146.912ZM247.124 147.138C247.124 148.241 247.332 149.086 247.747 149.673C248.163 150.253 248.757 150.543 249.53 150.543C250.282 150.543 250.87 150.257 251.292 149.684C251.715 149.104 251.926 148.18 251.926 146.912C251.926 145.831 251.715 144.993 251.292 144.399C250.87 143.804 250.275 143.507 249.509 143.507C248.75 143.507 248.163 143.804 247.747 144.399C247.332 144.986 247.124 145.899 247.124 147.138ZM263.172 153.046C261.468 153.046 260.078 152.523 259.004 151.478C257.937 150.432 257.404 149.039 257.404 147.299V146.998C257.404 145.831 257.629 144.789 258.08 143.872C258.531 142.948 259.169 142.239 259.992 141.745C260.823 141.244 261.768 140.993 262.828 140.993C264.418 140.993 265.668 141.495 266.577 142.497C267.494 143.5 267.952 144.921 267.952 146.762V148.029H260.551C260.651 148.789 260.952 149.397 261.453 149.856C261.962 150.314 262.603 150.543 263.376 150.543C264.572 150.543 265.507 150.11 266.18 149.243L267.705 150.951C267.24 151.61 266.61 152.126 265.815 152.498C265.02 152.863 264.139 153.046 263.172 153.046ZM262.818 143.507C262.202 143.507 261.7 143.715 261.314 144.13C260.934 144.545 260.691 145.14 260.583 145.913H264.902V145.666C264.887 144.979 264.701 144.449 264.343 144.076C263.985 143.697 263.476 143.507 262.818 143.507ZM270.121 146.934C270.121 145.122 270.526 143.679 271.335 142.605C272.152 141.53 273.265 140.993 274.676 140.993C275.808 140.993 276.742 141.416 277.48 142.261V136.331H280.595V152.831H277.791L277.641 151.596C276.868 152.563 275.872 153.046 274.655 153.046C273.287 153.046 272.187 152.509 271.357 151.435C270.533 150.353 270.121 148.853 270.121 146.934ZM273.226 147.159C273.226 148.248 273.416 149.082 273.795 149.662C274.175 150.242 274.726 150.532 275.45 150.532C276.409 150.532 277.086 150.128 277.48 149.319V144.732C277.093 143.922 276.423 143.518 275.471 143.518C273.974 143.518 273.226 144.732 273.226 147.159ZM294.355 147.127C294.355 148.989 293.957 150.443 293.163 151.488C292.368 152.527 291.258 153.046 289.832 153.046C288.572 153.046 287.566 152.563 286.814 151.596L286.674 152.831H283.881V136.331H286.986V142.25C287.702 141.412 288.644 140.993 289.811 140.993C291.229 140.993 292.339 141.516 293.141 142.562C293.95 143.6 294.355 145.065 294.355 146.955V147.127ZM291.25 146.902C291.25 145.727 291.064 144.871 290.692 144.334C290.319 143.79 289.764 143.518 289.027 143.518C288.039 143.518 287.358 143.922 286.986 144.732V149.319C287.365 150.135 288.053 150.543 289.048 150.543C290.051 150.543 290.71 150.049 291.025 149.061C291.175 148.588 291.25 147.868 291.25 146.902ZM302.947 153.046C301.243 153.046 299.854 152.523 298.779 151.478C297.712 150.432 297.179 149.039 297.179 147.299V146.998C297.179 145.831 297.404 144.789 297.856 143.872C298.307 142.948 298.944 142.239 299.768 141.745C300.598 141.244 301.544 140.993 302.604 140.993C304.193 140.993 305.443 141.495 306.353 142.497C307.269 143.5 307.728 144.921 307.728 146.762V148.029H300.326C300.427 148.789 300.727 149.397 301.229 149.856C301.737 150.314 302.378 150.543 303.151 150.543C304.347 150.543 305.282 150.11 305.955 149.243L307.481 150.951C307.015 151.61 306.385 152.126 305.59 152.498C304.795 152.863 303.914 153.046 302.947 153.046ZM302.593 143.507C301.977 143.507 301.476 143.715 301.089 144.13C300.709 144.545 300.466 145.14 300.359 145.913H304.677V145.666C304.663 144.979 304.476 144.449 304.118 144.076C303.76 143.697 303.252 143.507 302.593 143.507ZM313.849 142.476C314.673 141.487 315.708 140.993 316.954 140.993C319.475 140.993 320.753 142.458 320.789 145.387V152.831H317.684V145.473C317.684 144.807 317.541 144.316 317.255 144.001C316.968 143.679 316.492 143.518 315.826 143.518C314.916 143.518 314.258 143.869 313.849 144.571V152.831H310.745V136.331H313.849V142.476ZM329.8 153.046C328.096 153.046 326.707 152.523 325.632 151.478C324.565 150.432 324.032 149.039 324.032 147.299V146.998C324.032 145.831 324.257 144.789 324.708 143.872C325.16 142.948 325.797 142.239 326.621 141.745C327.451 141.244 328.397 140.993 329.457 140.993C331.046 140.993 332.296 141.495 333.206 142.497C334.122 143.5 334.581 144.921 334.581 146.762V148.029H327.179C327.279 148.789 327.58 149.397 328.082 149.856C328.59 150.314 329.231 150.543 330.004 150.543C331.2 150.543 332.135 150.11 332.808 149.243L334.333 150.951C333.868 151.61 333.238 152.126 332.443 152.498C331.648 152.863 330.767 153.046 329.8 153.046ZM329.446 143.507C328.83 143.507 328.329 143.715 327.942 144.13C327.562 144.545 327.319 145.14 327.211 145.913H331.53V145.666C331.515 144.979 331.329 144.449 330.971 144.076C330.613 143.697 330.105 143.507 329.446 143.507ZM343.023 153.046C341.318 153.046 339.929 152.523 338.855 151.478C337.788 150.432 337.254 149.039 337.254 147.299V146.998C337.254 145.831 337.48 144.789 337.931 143.872C338.382 142.948 339.019 142.239 339.843 141.745C340.674 141.244 341.619 140.993 342.679 140.993C344.269 140.993 345.518 141.495 346.428 142.497C347.345 143.5 347.803 144.921 347.803 146.762V148.029H340.402C340.502 148.789 340.803 149.397 341.304 149.856C341.812 150.314 342.453 150.543 343.227 150.543C344.423 150.543 345.357 150.11 346.03 149.243L347.556 150.951C347.09 151.61 346.46 152.126 345.665 152.498C344.87 152.863 343.989 153.046 343.023 153.046ZM342.668 143.507C342.052 143.507 341.551 143.715 341.164 144.13C340.785 144.545 340.541 145.14 340.434 145.913H344.752V145.666C344.738 144.979 344.552 144.449 344.194 144.076C343.835 143.697 343.327 143.507 342.668 143.507ZM357.867 144.119C357.444 144.062 357.072 144.033 356.749 144.033C355.575 144.033 354.805 144.431 354.44 145.226V152.831H351.335V141.208H354.268L354.354 142.594C354.977 141.527 355.84 140.993 356.943 140.993C357.287 140.993 357.609 141.04 357.91 141.133L357.867 144.119Z" fill="#A0CAE8"/>
</svg>
