<svg width="26" height="23" viewBox="0 0 26 23" fill="none" xmlns="http://www.w3.org/2000/svg">
<path d="M20.3333 8.01449C20.3333 6.15413 19.5607 4.36997 18.1855 3.0545C16.8102 1.73902 14.9449 1 13 1C11.0551 1 9.18982 1.73902 7.81455 3.0545C6.43928 4.36997 5.66667 6.15413 5.66667 8.01449C5.66667 13.9484 3.21304 16.809 1.86406 17.9333C1.6615 18.1021 1.79337 18.5362 2.05706 18.5362H8.52214C8.6391 18.5362 8.74073 18.6154 8.77521 18.7271C8.99911 19.4529 9.99866 22 13 22C16.0013 22 17.0009 19.4529 17.2248 18.7271C17.2593 18.6154 17.3609 18.5362 17.4779 18.5362H23.9429C24.2066 18.5362 24.3385 18.1021 24.1359 17.9333C22.787 16.809 20.3333 13.9484 20.3333 8.01449Z" stroke="#FCFCFC" stroke-width="2" stroke-linecap="round" stroke-linejoin="round"/>
</svg>
