<svg width="11" height="7" viewBox="0 0 11 7" fill="none" xmlns="http://www.w3.org/2000/svg">
<path d="M5.66962 6.75648C5.74742 6.75648 5.82113 6.74215 5.89074 6.71349C5.96445 6.68073 6.02792 6.63569 6.08115 6.57836L10.8352 1.70758C10.9458 1.59702 11.0011 1.46598 11.0011 1.31447C11.0011 1.20801 10.9765 1.11178 10.9274 1.02579C10.8782 0.939799 10.8107 0.872234 10.7247 0.823096C10.6428 0.773959 10.5486 0.74939 10.4421 0.74939C10.2906 0.74939 10.1575 0.802622 10.0429 0.909087L5.33794 5.71845H5.99516L1.29022 0.909087C1.17966 0.802622 1.04658 0.74939 0.890974 0.74939C0.784508 0.74939 0.68828 0.773959 0.602289 0.823096C0.520393 0.872234 0.454876 0.939799 0.405738 1.02579C0.3566 1.11178 0.332031 1.20801 0.332031 1.31447C0.332031 1.39228 0.346363 1.46598 0.375027 1.53559C0.403691 1.60111 0.444639 1.66049 0.497871 1.71372L5.25195 6.57836C5.3748 6.69711 5.51402 6.75648 5.66962 6.75648Z" fill="black"/>
</svg>
