<svg width="29" height="29" viewBox="0 0 29 29" fill="none" xmlns="http://www.w3.org/2000/svg">
<path d="M22.375 26.7917H6.625C5.52043 26.7917 4.625 25.8962 4.625 24.7917V4.20834C4.625 3.10376 5.52043 2.20833 6.625 2.20833H12.2171C13.874 2.20833 15.2171 3.55148 15.2171 5.20833V9.375C15.2171 10.7557 16.3364 11.875 17.7171 11.875H21.375C23.0319 11.875 24.375 13.2181 24.375 14.875V24.7917C24.375 25.8962 23.4796 26.7917 22.375 26.7917Z" stroke="#F7F7FC" stroke-width="2"/>
<path d="M22.375 26.7917H6.625C5.52043 26.7917 4.625 25.8962 4.625 24.7917V4.20834C4.625 3.10376 5.52043 2.20833 6.625 2.20833H12.03C14.3898 2.20833 16.6292 3.2502 18.1493 5.05525L22.4943 10.215C23.7089 11.6573 24.375 13.4824 24.375 15.368V24.7917C24.375 25.8962 23.4796 26.7917 22.375 26.7917Z" stroke="#F7F7FC" stroke-width="2"/>
</svg>
