<svg width="29" height="29" viewBox="0 0 29 29" fill="none" xmlns="http://www.w3.org/2000/svg">
<path d="M22.375 26.7917H6.625C5.52043 26.7917 4.625 25.8962 4.625 24.7917V4.20835C4.625 3.10378 5.52043 2.20834 6.625 2.20834H12.2171C13.874 2.20834 15.2171 3.55149 15.2171 5.20834V9.37501C15.2171 10.7557 16.3364 11.875 17.7171 11.875H21.375C23.0319 11.875 24.375 13.2182 24.375 14.875V24.7917C24.375 25.8962 23.4796 26.7917 22.375 26.7917Z" stroke="" stroke-width="2"/>
<path d="M22.375 26.7917H6.625C5.52043 26.7917 4.625 25.8962 4.625 24.7917V4.20835C4.625 3.10378 5.52043 2.20834 6.625 2.20834H12.03C14.3898 2.20834 16.6292 3.25021 18.1493 5.05526L22.4943 10.215C23.7089 11.6573 24.375 13.4824 24.375 15.3681V24.7917C24.375 25.8962 23.4796 26.7917 22.375 26.7917Z" stroke="" stroke-width="2"/>
</svg>
