<svg width="27" height="21" viewBox="0 0 27 21" fill="" stroke="none" xmlns="http://www.w3.org/2000/svg">
<path opacity="0.8" d="M26.209 11.0226L17.3496 19.882C16.5586 20.673 15.1875 20.1193 15.1875 18.9855V13.923H8.01562C7.31426 13.923 6.75 13.3587 6.75 12.6574V7.59487C6.75 6.89351 7.31426 6.32925 8.01562 6.32925H15.1875V1.26675C15.1875 0.138231 16.5533 -0.420753 17.3496 0.370262L26.209 9.22964C26.6994 9.72534 26.6994 10.5269 26.209 11.0226ZM10.125 19.6183V17.5089C10.125 17.1609 9.84023 16.8761 9.49219 16.8761H5.0625C4.1291 16.8761 3.375 16.122 3.375 15.1886V5.06362C3.375 4.13022 4.1291 3.37612 5.0625 3.37612H9.49219C9.84023 3.37612 10.125 3.09136 10.125 2.74331V0.633934C10.125 0.285887 9.84023 0.00112159 9.49219 0.00112159H5.0625C2.26758 0.00112159 0 2.2687 0 5.06362V15.1886C0 17.9835 2.26758 20.2511 5.0625 20.2511H9.49219C9.84023 20.2511 10.125 19.9664 10.125 19.6183Z" fill=""/>
</svg>
