<svg width="401" height="157" viewBox="0 0 401 157" fill="none" xmlns="http://www.w3.org/2000/svg">
<path d="M350.5 36.5C368 38.3785 377.393 14.2156 369.927 3.06828C363 31 347 28.5 349 32.5C345.858 32.6307 355.5 37.0367 350.5 36.5Z" fill="#451763" stroke="#451763"/>
<path d="M390.5 37C360.5 47 350 29 347 16.5C344 30 351.1 53.5 383.5 49.5C392.833 48.1667 407.3 43.8 390.5 37Z" fill="#A0CAE8" stroke="#A0CAE8"/>
<path d="M347.057 14.6676L347.156 15.0901L347.282 15.589L347.49 16.3926C347.49 16.3926 346.42 17.041 346.465 16.625C346.509 16.209 347.057 14.6676 347.057 14.6676Z" fill="#A0CAE8"/>
<path d="M364 55C394.4 43.8 387.5 9 375.5 3C384 30 366 44 352.5 49.5C349.833 51.1667 349.6 54.2 364 55Z" fill="#451763" stroke="#451763"/>
<path d="M358.22 61.6094C330.21 60.3207 330.938 24.3142 343.37 15.2201C338.721 61.7565 375.674 55.4775 372.693 58.0001C368.966 61.1541 362.055 61.7471 358.22 61.6094Z" fill="#A0CAE8" stroke="#A0CAE8"/>
<path d="M385 7C416.5 22.5 396.5 87 346 58.5C389.2 70.9 401.5 27 385 7Z" fill="#451763" stroke="#451763"/>
<path d="M344.816 57.6172C344.852 57.6328 345.277 57.7656 345.277 57.7656L345.695 57.8945L346.058 57.9998L346.409 58.0963L345.781 58.957L345.416 58.6814L345.156 58.4648L344.949 58.272L344.773 58.0742L344.555 57.8008L344.234 57.3555C344.234 57.3555 344.781 57.6016 344.816 57.6172Z" fill="#451763"/>
<path d="M384.223 6.11327L384.598 6.26556L384.785 6.34759L385 6.44134L385.156 6.51556L385.336 6.6015L384.633 7.34375L384.445 7.10151L384.223 6.83936L383.889 6.44134L383.398 5.82445L384.223 6.11327Z" fill="#451763"/>
<path d="M373.894 57.4375L373.492 57.6133L373 57.8164L372.054 58.1852L371.517 56.722L372.146 56.8289L372.698 56.9249L373.298 57.033L374.343 57.2371L373.894 57.4375Z" fill="#A0CAE8"/>
<path d="M3.68712 119V89.1406H12.5055C15.1441 89.1406 17.482 89.7285 19.5191 90.9043C21.5699 92.0801 23.1559 93.748 24.277 95.9082C25.3981 98.0684 25.9586 100.543 25.9586 103.332V104.829C25.9586 107.659 25.3912 110.147 24.2565 112.294C23.1354 114.44 21.5289 116.095 19.4371 117.257C17.359 118.419 14.9733 119 12.2799 119H3.68712ZM8.8756 93.3242V114.857H12.2594C14.9801 114.857 17.065 114.01 18.5143 112.314C19.9772 110.605 20.7223 108.158 20.7496 104.973V103.312C20.7496 100.071 20.0455 97.5967 18.6373 95.8877C17.2291 94.1787 15.1852 93.3242 12.5055 93.3242H8.8756ZM40.8366 119.41C37.6784 119.41 35.1149 118.419 33.1462 116.437C31.1911 114.44 30.2136 111.788 30.2136 108.479V107.864C30.2136 105.649 30.6374 103.674 31.485 101.938C32.3464 100.188 33.5495 98.8271 35.0944 97.8564C36.6393 96.8857 38.362 96.4004 40.2624 96.4004C43.2839 96.4004 45.6149 97.3643 47.2556 99.292C48.9099 101.22 49.737 103.947 49.737 107.475V109.484H35.238C35.3884 111.316 35.9968 112.766 37.0632 113.832C38.1433 114.898 39.4968 115.432 41.1237 115.432C43.4069 115.432 45.2663 114.509 46.7018 112.663L49.3884 115.227C48.4997 116.553 47.3102 117.585 45.82 118.323C44.3434 119.048 42.6823 119.41 40.8366 119.41ZM40.2419 100.399C38.8747 100.399 37.7673 100.878 36.9196 101.835C36.0856 102.792 35.5524 104.125 35.32 105.834H44.8151V105.465C44.7058 103.797 44.2614 102.539 43.4821 101.691C42.7028 100.83 41.6227 100.399 40.2419 100.399ZM89.0907 119H83.9022L70.5926 97.8154V119H65.4041V89.1406H70.5926L83.9432 110.407V89.1406H89.0907V119ZM100.462 119H95.4784V96.8105H100.462V119ZM95.1708 91.0479C95.1708 90.2822 95.4101 89.6465 95.8886 89.1406C96.3808 88.6348 97.0781 88.3818 97.9804 88.3818C98.8827 88.3818 99.58 88.6348 100.072 89.1406C100.564 89.6465 100.81 90.2822 100.81 91.0479C100.81 91.7998 100.564 92.4287 100.072 92.9346C99.58 93.4268 98.8827 93.6729 97.9804 93.6729C97.0781 93.6729 96.3808 93.4268 95.8886 92.9346C95.4101 92.4287 95.1708 91.7998 95.1708 91.0479ZM116.099 119.41C112.94 119.41 110.377 118.419 108.408 116.437C106.453 114.44 105.476 111.788 105.476 108.479V107.864C105.476 105.649 105.899 103.674 106.747 101.938C107.608 100.188 108.812 98.8271 110.356 97.8564C111.901 96.8857 113.624 96.4004 115.524 96.4004C118.546 96.4004 120.877 97.3643 122.518 99.292C124.172 101.22 124.999 103.947 124.999 107.475V109.484H110.5C110.65 111.316 111.259 112.766 112.325 113.832C113.405 114.898 114.759 115.432 116.386 115.432C118.669 115.432 120.528 114.509 121.964 112.663L124.65 115.227C123.762 116.553 122.572 117.585 121.082 118.323C119.605 119.048 117.944 119.41 116.099 119.41ZM115.504 100.399C114.137 100.399 113.029 100.878 112.182 101.835C111.348 102.792 110.814 104.125 110.582 105.834H120.077V105.465C119.968 103.797 119.523 102.539 118.744 101.691C117.965 100.83 116.885 100.399 115.504 100.399ZM142.748 116.826C141.285 118.549 139.207 119.41 136.514 119.41C134.108 119.41 132.282 118.706 131.038 117.298C129.808 115.89 129.192 113.853 129.192 111.187V96.8105H134.176V111.125C134.176 113.941 135.345 115.35 137.683 115.35C140.103 115.35 141.736 114.481 142.584 112.745V96.8105H147.567V119H142.871L142.748 116.826ZM172.556 112.13L176.083 96.8105H180.944L174.894 119H170.792L166.034 103.763L161.359 119H157.257L151.187 96.8105H156.047L159.636 111.966L164.189 96.8105H167.942L172.556 112.13ZM194.468 119.41C191.31 119.41 188.746 118.419 186.778 116.437C184.823 114.44 183.845 111.788 183.845 108.479V107.864C183.845 105.649 184.269 103.674 185.116 101.938C185.978 100.188 187.181 98.8271 188.726 97.8564C190.271 96.8857 191.993 96.4004 193.894 96.4004C196.915 96.4004 199.246 97.3643 200.887 99.292C202.541 101.22 203.368 103.947 203.368 107.475V109.484H188.869C189.02 111.316 189.628 112.766 190.695 113.832C191.775 114.898 193.128 115.432 194.755 115.432C197.038 115.432 198.898 114.509 200.333 112.663L203.02 115.227C202.131 116.553 200.942 117.585 199.451 118.323C197.975 119.048 196.314 119.41 194.468 119.41ZM193.873 100.399C192.506 100.399 191.399 100.878 190.551 101.835C189.717 102.792 189.184 104.125 188.951 105.834H198.447V105.465C198.337 103.797 197.893 102.539 197.114 101.691C196.334 100.83 195.254 100.399 193.873 100.399ZM244.975 111.617L249.569 89.1406H254.717L247.826 119H242.863L237.183 97.2002L231.379 119H226.395L219.505 89.1406H224.652L229.287 111.576L234.988 89.1406H239.336L244.975 111.617ZM268.641 119.41C265.482 119.41 262.919 118.419 260.95 116.437C258.995 114.44 258.018 111.788 258.018 108.479V107.864C258.018 105.649 258.441 103.674 259.289 101.938C260.15 100.188 261.354 98.8271 262.898 97.8564C264.443 96.8857 266.166 96.4004 268.066 96.4004C271.088 96.4004 273.419 97.3643 275.06 99.292C276.714 101.22 277.541 103.947 277.541 107.475V109.484H263.042C263.192 111.316 263.801 112.766 264.867 113.832C265.947 114.898 267.301 115.432 268.928 115.432C271.211 115.432 273.07 114.509 274.506 112.663L277.192 115.227C276.304 116.553 275.114 117.585 273.624 118.323C272.148 119.048 270.486 119.41 268.641 119.41ZM268.046 100.399C266.679 100.399 265.571 100.878 264.724 101.835C263.89 102.792 263.356 104.125 263.124 105.834H272.619V105.465C272.51 103.797 272.065 102.539 271.286 101.691C270.507 100.83 269.427 100.399 268.046 100.399ZM294.725 101.363C294.069 101.254 293.392 101.199 292.695 101.199C290.411 101.199 288.873 102.074 288.08 103.824V119H283.097V96.8105H287.855L287.978 99.292C289.181 97.3643 290.849 96.4004 292.982 96.4004C293.693 96.4004 294.281 96.4961 294.745 96.6875L294.725 101.363ZM309.745 119.41C306.587 119.41 304.023 118.419 302.054 116.437C300.099 114.44 299.122 111.788 299.122 108.479V107.864C299.122 105.649 299.546 103.674 300.393 101.938C301.255 100.188 302.458 98.8271 304.003 97.8564C305.548 96.8857 307.27 96.4004 309.171 96.4004C312.192 96.4004 314.523 97.3643 316.164 99.292C317.818 101.22 318.645 103.947 318.645 107.475V109.484H304.146C304.297 111.316 304.905 112.766 305.971 113.832C307.052 114.898 308.405 115.432 310.032 115.432C312.315 115.432 314.175 114.509 315.61 112.663L318.297 115.227C317.408 116.553 316.219 117.585 314.728 118.323C313.252 119.048 311.591 119.41 309.745 119.41ZM309.15 100.399C307.783 100.399 306.676 100.878 305.828 101.835C304.994 102.792 304.461 104.125 304.228 105.834H313.723V105.465C313.614 103.797 313.17 102.539 312.39 101.691C311.611 100.83 310.531 100.399 309.15 100.399ZM330.353 119H325.369V87.5H330.353V119ZM337.385 107.741C337.385 104.323 338.177 101.582 339.763 99.5176C341.349 97.4395 343.475 96.4004 346.141 96.4004C348.493 96.4004 350.393 97.2207 351.843 98.8613V87.5H356.826V119H352.314L352.068 116.703C350.578 118.508 348.589 119.41 346.1 119.41C343.503 119.41 341.397 118.364 339.784 116.272C338.184 114.181 337.385 111.337 337.385 107.741ZM342.368 108.172C342.368 110.428 342.799 112.191 343.66 113.463C344.535 114.721 345.772 115.35 347.372 115.35C349.409 115.35 350.899 114.44 351.843 112.622V103.147C350.926 101.37 349.45 100.481 347.413 100.481C345.8 100.481 344.555 101.124 343.68 102.409C342.805 103.681 342.368 105.602 342.368 108.172Z" fill="#451763"/>
<path d="M192.577 148.039L194.737 140.208H197.981L194.06 151.831H191.095L187.174 140.208H190.418L192.577 148.039ZM206.359 151.831C206.216 151.552 206.112 151.205 206.048 150.789C205.296 151.627 204.318 152.046 203.115 152.046C201.976 152.046 201.031 151.717 200.279 151.058C199.534 150.399 199.162 149.568 199.162 148.566C199.162 147.334 199.617 146.389 200.526 145.73C201.443 145.071 202.764 144.738 204.49 144.731H205.919V144.065C205.919 143.528 205.779 143.098 205.5 142.776C205.228 142.453 204.794 142.292 204.2 142.292C203.677 142.292 203.265 142.418 202.965 142.668C202.671 142.919 202.524 143.263 202.524 143.699H199.42C199.42 143.026 199.627 142.403 200.043 141.83C200.458 141.257 201.045 140.81 201.805 140.487C202.564 140.158 203.416 139.993 204.361 139.993C205.793 139.993 206.929 140.355 207.766 141.078C208.611 141.794 209.034 142.804 209.034 144.108V149.146C209.041 150.249 209.195 151.083 209.496 151.649V151.831H206.359ZM203.792 149.672C204.25 149.672 204.673 149.572 205.059 149.371C205.446 149.164 205.733 148.888 205.919 148.544V146.546H204.759C203.205 146.546 202.377 147.083 202.277 148.157L202.266 148.34C202.266 148.727 202.403 149.045 202.675 149.296C202.947 149.547 203.319 149.672 203.792 149.672ZM218.154 148.619C218.154 148.24 217.964 147.943 217.584 147.728C217.212 147.506 216.61 147.309 215.78 147.137C213.015 146.557 211.633 145.382 211.633 143.613C211.633 142.582 212.059 141.723 212.912 141.035C213.771 140.341 214.892 139.993 216.274 139.993C217.749 139.993 218.927 140.341 219.808 141.035C220.696 141.73 221.14 142.632 221.14 143.742H218.036C218.036 143.298 217.892 142.933 217.606 142.647C217.319 142.353 216.872 142.206 216.263 142.206C215.74 142.206 215.336 142.324 215.049 142.561C214.763 142.797 214.62 143.098 214.62 143.463C214.62 143.807 214.781 144.086 215.103 144.301C215.432 144.509 215.984 144.691 216.757 144.849C217.531 144.999 218.182 145.171 218.712 145.364C220.352 145.966 221.172 147.008 221.172 148.49C221.172 149.55 220.718 150.41 219.808 151.069C218.899 151.72 217.724 152.046 216.285 152.046C215.311 152.046 214.444 151.874 213.685 151.53C212.933 151.18 212.342 150.703 211.913 150.102C211.483 149.493 211.268 148.838 211.268 148.136H214.211C214.24 148.687 214.444 149.11 214.824 149.404C215.203 149.697 215.712 149.844 216.349 149.844C216.943 149.844 217.391 149.733 217.692 149.511C218 149.282 218.154 148.985 218.154 148.619ZM227.338 137.351V140.208H229.325V142.486H227.338V148.286C227.338 148.716 227.42 149.024 227.585 149.21C227.75 149.396 228.065 149.489 228.53 149.489C228.874 149.489 229.178 149.464 229.443 149.414V151.767C228.835 151.953 228.208 152.046 227.563 152.046C225.386 152.046 224.276 150.947 224.233 148.748V142.486H222.536V140.208H224.233V137.351H227.338ZM231.043 145.934C231.043 144.151 231.466 142.715 232.311 141.626C233.163 140.538 234.309 139.993 235.749 139.993C237.023 139.993 238.015 140.43 238.724 141.304L238.853 140.208H241.667V151.445C241.667 152.461 241.435 153.346 240.969 154.098C240.511 154.85 239.863 155.423 239.025 155.817C238.187 156.21 237.206 156.407 236.082 156.407C235.229 156.407 234.399 156.236 233.589 155.892C232.78 155.555 232.168 155.118 231.752 154.581L233.127 152.691C233.901 153.557 234.839 153.99 235.942 153.99C236.765 153.99 237.406 153.768 237.865 153.324C238.323 152.888 238.552 152.265 238.552 151.455V150.832C237.836 151.641 236.894 152.046 235.727 152.046C234.331 152.046 233.199 151.502 232.333 150.413C231.473 149.318 231.043 147.867 231.043 146.063V145.934ZM234.148 146.159C234.148 147.212 234.359 148.039 234.782 148.641C235.204 149.235 235.784 149.532 236.522 149.532C237.467 149.532 238.144 149.178 238.552 148.469V143.581C238.137 142.872 237.467 142.518 236.543 142.518C235.799 142.518 235.211 142.822 234.782 143.431C234.359 144.04 234.148 144.949 234.148 146.159ZM244.02 145.912C244.02 144.759 244.242 143.732 244.686 142.829C245.13 141.927 245.767 141.229 246.598 140.735C247.436 140.24 248.406 139.993 249.509 139.993C251.077 139.993 252.356 140.473 253.344 141.433C254.339 142.392 254.894 143.696 255.009 145.343L255.03 146.138C255.03 147.921 254.533 149.353 253.537 150.435C252.542 151.509 251.206 152.046 249.53 152.046C247.855 152.046 246.515 151.509 245.513 150.435C244.517 149.361 244.02 147.9 244.02 146.052V145.912ZM247.124 146.138C247.124 147.241 247.332 148.086 247.747 148.673C248.163 149.253 248.757 149.543 249.53 149.543C250.282 149.543 250.87 149.257 251.292 148.684C251.715 148.104 251.926 147.18 251.926 145.912C251.926 144.831 251.715 143.993 251.292 143.399C250.87 142.804 250.275 142.507 249.509 142.507C248.75 142.507 248.163 142.804 247.747 143.399C247.332 143.986 247.124 144.899 247.124 146.138ZM263.172 152.046C261.468 152.046 260.078 151.523 259.004 150.478C257.937 149.432 257.404 148.039 257.404 146.299V145.998C257.404 144.831 257.629 143.789 258.08 142.872C258.531 141.948 259.169 141.239 259.992 140.745C260.823 140.244 261.768 139.993 262.828 139.993C264.418 139.993 265.668 140.495 266.577 141.497C267.494 142.5 267.952 143.921 267.952 145.762V147.029H260.551C260.651 147.789 260.952 148.397 261.453 148.856C261.962 149.314 262.603 149.543 263.376 149.543C264.572 149.543 265.507 149.11 266.18 148.243L267.705 149.951C267.24 150.61 266.61 151.126 265.815 151.498C265.02 151.863 264.139 152.046 263.172 152.046ZM262.818 142.507C262.202 142.507 261.7 142.715 261.314 143.13C260.934 143.545 260.691 144.14 260.583 144.913H264.902V144.666C264.887 143.979 264.701 143.449 264.343 143.076C263.985 142.697 263.476 142.507 262.818 142.507ZM270.121 145.934C270.121 144.122 270.526 142.679 271.335 141.605C272.152 140.53 273.265 139.993 274.676 139.993C275.808 139.993 276.742 140.416 277.48 141.261V135.331H280.595V151.831H277.791L277.641 150.596C276.868 151.563 275.872 152.046 274.655 152.046C273.287 152.046 272.187 151.509 271.357 150.435C270.533 149.353 270.121 147.853 270.121 145.934ZM273.226 146.159C273.226 147.248 273.416 148.082 273.795 148.662C274.175 149.242 274.726 149.532 275.45 149.532C276.409 149.532 277.086 149.128 277.48 148.319V143.732C277.093 142.922 276.423 142.518 275.471 142.518C273.974 142.518 273.226 143.732 273.226 146.159ZM294.355 146.127C294.355 147.989 293.957 149.443 293.163 150.488C292.368 151.527 291.258 152.046 289.832 152.046C288.572 152.046 287.566 151.563 286.814 150.596L286.674 151.831H283.881V135.331H286.986V141.25C287.702 140.412 288.644 139.993 289.811 139.993C291.229 139.993 292.339 140.516 293.141 141.562C293.95 142.6 294.355 144.065 294.355 145.955V146.127ZM291.25 145.902C291.25 144.727 291.064 143.871 290.692 143.334C290.319 142.79 289.764 142.518 289.027 142.518C288.039 142.518 287.358 142.922 286.986 143.732V148.319C287.365 149.135 288.053 149.543 289.048 149.543C290.051 149.543 290.71 149.049 291.025 148.061C291.175 147.588 291.25 146.868 291.25 145.902ZM302.947 152.046C301.243 152.046 299.854 151.523 298.779 150.478C297.712 149.432 297.179 148.039 297.179 146.299V145.998C297.179 144.831 297.404 143.789 297.856 142.872C298.307 141.948 298.944 141.239 299.768 140.745C300.598 140.244 301.544 139.993 302.604 139.993C304.193 139.993 305.443 140.495 306.353 141.497C307.269 142.5 307.728 143.921 307.728 145.762V147.029H300.326C300.427 147.789 300.727 148.397 301.229 148.856C301.737 149.314 302.378 149.543 303.151 149.543C304.347 149.543 305.282 149.11 305.955 148.243L307.481 149.951C307.015 150.61 306.385 151.126 305.59 151.498C304.795 151.863 303.914 152.046 302.947 152.046ZM302.593 142.507C301.977 142.507 301.476 142.715 301.089 143.13C300.709 143.545 300.466 144.14 300.359 144.913H304.677V144.666C304.663 143.979 304.476 143.449 304.118 143.076C303.76 142.697 303.252 142.507 302.593 142.507ZM313.849 141.476C314.673 140.487 315.708 139.993 316.954 139.993C319.475 139.993 320.753 141.458 320.789 144.387V151.831H317.684V144.473C317.684 143.807 317.541 143.316 317.255 143.001C316.968 142.679 316.492 142.518 315.826 142.518C314.916 142.518 314.258 142.869 313.849 143.571V151.831H310.745V135.331H313.849V141.476ZM329.8 152.046C328.096 152.046 326.707 151.523 325.632 150.478C324.565 149.432 324.032 148.039 324.032 146.299V145.998C324.032 144.831 324.257 143.789 324.708 142.872C325.16 141.948 325.797 141.239 326.621 140.745C327.451 140.244 328.397 139.993 329.457 139.993C331.046 139.993 332.296 140.495 333.206 141.497C334.122 142.5 334.581 143.921 334.581 145.762V147.029H327.179C327.279 147.789 327.58 148.397 328.082 148.856C328.59 149.314 329.231 149.543 330.004 149.543C331.2 149.543 332.135 149.11 332.808 148.243L334.333 149.951C333.868 150.61 333.238 151.126 332.443 151.498C331.648 151.863 330.767 152.046 329.8 152.046ZM329.446 142.507C328.83 142.507 328.329 142.715 327.942 143.13C327.562 143.545 327.319 144.14 327.211 144.913H331.53V144.666C331.515 143.979 331.329 143.449 330.971 143.076C330.613 142.697 330.105 142.507 329.446 142.507ZM343.023 152.046C341.318 152.046 339.929 151.523 338.855 150.478C337.788 149.432 337.254 148.039 337.254 146.299V145.998C337.254 144.831 337.48 143.789 337.931 142.872C338.382 141.948 339.019 141.239 339.843 140.745C340.674 140.244 341.619 139.993 342.679 139.993C344.269 139.993 345.518 140.495 346.428 141.497C347.345 142.5 347.803 143.921 347.803 145.762V147.029H340.402C340.502 147.789 340.803 148.397 341.304 148.856C341.812 149.314 342.453 149.543 343.227 149.543C344.423 149.543 345.357 149.11 346.03 148.243L347.556 149.951C347.09 150.61 346.46 151.126 345.665 151.498C344.87 151.863 343.989 152.046 343.023 152.046ZM342.668 142.507C342.052 142.507 341.551 142.715 341.164 143.13C340.785 143.545 340.541 144.14 340.434 144.913H344.752V144.666C344.738 143.979 344.552 143.449 344.194 143.076C343.835 142.697 343.327 142.507 342.668 142.507ZM357.867 143.119C357.444 143.062 357.072 143.033 356.749 143.033C355.575 143.033 354.805 143.431 354.44 144.226V151.831H351.335V140.208H354.268L354.354 141.594C354.977 140.527 355.84 139.993 356.943 139.993C357.287 139.993 357.609 140.04 357.91 140.133L357.867 143.119Z" fill="#A0CAE8"/>
</svg>
