<svg width="28" height="35" viewBox="0 0 28 35" fill="none" xmlns="http://www.w3.org/2000/svg">
<path d="M1 3C1 1.89543 1.89543 1 3 1H16.2105H25C26.1046 1 27 1.89543 27 3V14V31.2222C27 32.3268 26.1046 33.2222 25 33.2222H3C1.89543 33.2222 1 32.3268 1 31.2222V3Z" fill="" stroke="" stroke-width="2"/>
<path d="M13.65 15.7777C13.65 15.5844 13.8067 15.4277 14 15.4277H18.4035H21.3333C21.5266 15.4277 21.6833 15.5844 21.6833 15.7777V18.5959V23.1111C21.6833 23.3044 21.5266 23.4611 21.3333 23.4611H14C13.8067 23.4611 13.65 23.3044 13.65 23.1111V15.7777Z" stroke="" stroke-width="1.3"/>
<path d="M15.5557 21.7778L18.6466 19.4727C19.2999 18.9855 20.1833 18.9434 20.8799 19.3662L21.7779 19.9111" stroke=""/>
<path d="M6.22266 11.6666H21.7782" stroke="" stroke-width="2" stroke-linecap="round"/>
<path d="M6.22266 7H21.7782" stroke="" stroke-width="2" stroke-linecap="round"/>
<path d="M6.22266 28H21.7782" stroke="" stroke-width="2" stroke-linecap="round"/>
<path d="M6.22266 17.1111H10.8893" stroke="" stroke-width="2" stroke-linecap="round"/>
<path d="M6.22266 21.7778H10.8893" stroke="" stroke-width="2" stroke-linecap="round"/>
<circle r="0.311111" transform="matrix(-1 0 0 1 17.1117 17.7332)" fill="" stroke="" stroke-width="0.5"/>
</svg>
