<svg width="28" height="35" viewBox="0 0 28 35" fill="none" xmlns="http://www.w3.org/2000/svg">
<path d="M12.9678 11.1747L24.611 11.1857" stroke="#451864" stroke-width="2" stroke-linecap="round"/>
<path d="M12.9678 18.0744L24.611 18.0855" stroke="#451864" stroke-width="2" stroke-linecap="round"/>
<path d="M12.9678 24.9741L24.611 24.9851" stroke="#451864" stroke-width="2" stroke-linecap="round"/>
<path d="M4.37695 10.3943L6.32358 12.413L10.2168 8.37557" stroke="#451864" stroke-width="2" stroke-linecap="round"/>
<path d="M4.37695 17.3206L6.32358 19.4946L10.2168 15.1465" stroke="#451864" stroke-width="2" stroke-linecap="round"/>
<rect width="1.66154" height="1.72308" transform="translate(5.49219 24.0923)" fill="white"/>
<ellipse cx="6.32306" cy="24.9539" rx="0.761539" ry="0.789744" fill="#451864" stroke="#451864" stroke-width="3"/>
<path d="M25 33.2222H3C1.89543 33.2222 1 32.3268 1 31.2222V3C1 1.89543 1.89543 1 3 1H16.2105H25C26.1046 1 27 1.89543 27 3V14V31.2222C27 32.3268 26.1046 33.2222 25 33.2222Z" stroke="#451864" stroke-width="2"/>
</svg>
